/* XPM */
static char *close_pressed[] = {
/* columns rows colors chars-per-pixel */
"34 26 35 1 ",
"  c #363539",
". c #37363A",
"X c #39383D",
"o c #3C3B40",
"O c #3C3B41",
"+ c #3D3B41",
"@ c #3E3D41",
"# c #3D3C42",
"$ c #3E3C42",
"% c #3F3C42",
"& c #3F3D43",
"* c #4A484F",
"= c #4B484F",
"- c #4A494F",
"; c #4E4B53",
": c #4F4C53",
"> c #4E4D54",
", c #54505A",
"< c #54525A",
"1 c #55525B",
"2 c #56525B",
"3 c #56525C",
"4 c #595760",
"5 c #5A5760",
"6 c #5B5760",
"7 c #5E5A65",
"8 c #5E5B65",
"9 c #605D67",
"0 c #615E68",
"q c #948FA0",
"w c #9590A1",
"e c #9793A5",
"r c #C3BDD5",
"t c #C3BCD6",
"y c #E5DDFB",
/* pixels */
"            +*258852*O            ",
"          &399999999992&          ",
"        .>99999999999999>.        ",
"       X399999999999999992X       ",
"      .29999999999999999992.      ",
"      >99999999999999999999:      ",
"     $9999999999999999999999&     ",
"     299999999999999999999992     ",
"    O999999990999999099999999O    ",
"    -99999990tw9999wt09999999=    ",
"    299999999qye99qye999999992    ",
"    6999999999qyeqye9999999995    ",
"    79999999999wyyw99999999997    ",
"    79999999999wyyw99999999997    ",
"    6999999999qyeqye9999999995    ",
"    299999999qye99qye999999991    ",
"    *99999990rw9999wt09999999*    ",
"    o999999990999999099999999O    ",
"     299999999999999999999991     ",
"     #9999999999999999999999%     ",
"      >99999999999999999999;      ",
"       <9999999999999999992.      ",
"       X299999999999999992X       ",
"        .>99999999999999;.        ",
"          @,99999999992$          ",
"            O=257741*o            "
};
