/* XPM */
static char *close_inactive[] = {
/* columns rows colors chars-per-pixel */
"34 26 26 1 ",
"  c #2C2B2E",
". c #2D2C2F",
"X c #2D2C30",
"o c #2E2C30",
"O c #2E2D30",
"+ c #2E2D31",
"@ c #323035",
"# c #323135",
"$ c #333236",
"% c #343236",
"& c #353338",
"* c #353339",
"= c #353439",
"- c #363439",
"; c #36343A",
": c #36353A",
"> c #37353A",
", c #38363C",
"< c #39373C",
"1 c #3A383D",
"2 c #66636E",
"3 c #67646F",
"4 c #6A6672",
"5 c #8F8B9C",
"6 c #908B9D",
"7 c #AEA8BE",
/* pixels */
"            o@-;,,;=@o            ",
"          +-<<<<<<<<<<-+          ",
"         %<<<<<<<<<<<<<<%         ",
"       .-<<<<<<<<<<<<<<<<=.       ",
"       -<<<<<<<<<<<<<<<<<<=       ",
"      %<<<<<<<<<<<<<<<<<<<<%      ",
"     +<<<<<<<<<<<<<<<<<<<<<<+     ",
"     -<<<<<<<<<<<<<<<<<<<<<<=     ",
"    X<<<<<<<<1<<<<<<1<<<<<<<<o    ",
"    #<<<<<<<163<<<<361<<<<<<<@    ",
"    =<<<<<<<<274<<274<<<<<<<<=    ",
"    ><<<<<<<<<274274<<<<<<<<<:    ",
"    ,<<<<<<<<<<3773<<<<<<<<<<,    ",
"    ,<<<<<<<<<<3773<<<<<<<<<<,    ",
"    :<<<<<<<<<274274<<<<<<<<<;    ",
"    =<<<<<<<<274<<274<<<<<<<<=    ",
"    @<<<<<<<153<<<<361<<<<<<<@    ",
"    X<<<<<<<<1<<<<<<1<<<<<<<<X    ",
"     =<<<<<<<<<<<<<<<<<<<<<<=     ",
"     +<<<<<<<<<<<<<<<<<<<<<<+     ",
"      %<<<<<<<<<<<<<<<<<<<<$      ",
"       *<<<<<<<<<<<<<<<<<<=       ",
"       .=<<<<<<<<<<<<<<<<=.       ",
"         %<<<<<<<<<<<<<<$         ",
"          O&<<<<<<<<<<=+          ",
"            X@=;,,;=@X            "
};
