/* XPM */
static char *hide_pressed[] = {
/* columns rows colors chars-per-pixel */
"34 26 29 1 ",
"  c #363539",
". c #37363A",
"X c #39383D",
"o c #3C3B40",
"O c #3C3B41",
"+ c #3D3B41",
"@ c #3E3D41",
"# c #3D3C42",
"$ c #3E3C42",
"% c #3F3C42",
"& c #3F3D43",
"* c #4A484F",
"= c #4B484F",
"- c #4A494F",
"; c #4E4B53",
": c #4F4C53",
"> c #4E4D54",
", c #54505A",
"< c #54525A",
"1 c #55525B",
"2 c #56525B",
"3 c #56525C",
"4 c #595760",
"5 c #5A5760",
"6 c #5B5760",
"7 c #5E5A65",
"8 c #5E5B65",
"9 c #605D67",
"0 c #E7DFFD",
/* pixels */
"            +*258852*O            ",
"          &399999999992&          ",
"        .>99999999999999>.        ",
"       X399999999999999992X       ",
"      .29999999999999999992.      ",
"      >99999999999999999999:      ",
"     $9999999999999999999999&     ",
"     299999999999999999999992     ",
"    O999999999999999999999999O    ",
"    -999999999999999999999999=    ",
"    29999999999999999999999992    ",
"    69999999999999999999999995    ",
"    79999999999999999999999997    ",
"    79999999999999999999999997    ",
"    69999999999999999999999995    ",
"    29999999900000000999999991    ",
"    *999999999999999999999999*    ",
"    o999999999999999999999999O    ",
"     299999999999999999999991     ",
"     #9999999999999999999999%     ",
"      >99999999999999999999;      ",
"       <9999999999999999992.      ",
"       X299999999999999992X       ",
"        .>99999999999999;.        ",
"          @,99999999992$          ",
"            O=257741*o            "
};
