/* XPM */
static char *hide_inactive[] = {
/* columns rows colors chars-per-pixel */
"34 26 20 1 ",
"  c #2C2B2E",
". c #2D2C2F",
"X c #2D2C30",
"o c #2E2C30",
"O c #2E2D30",
"+ c #2E2D31",
"@ c #323035",
"# c #323135",
"$ c #333236",
"% c #343236",
"& c #353338",
"* c #353339",
"= c #353439",
"- c #363439",
"; c #36343A",
": c #36353A",
"> c #37353A",
", c #38363C",
"< c #39373C",
"1 c #AFA9BF",
/* pixels */
"            o@-;,,;=@o            ",
"          +-<<<<<<<<<<-+          ",
"         %<<<<<<<<<<<<<<%         ",
"       .-<<<<<<<<<<<<<<<<=.       ",
"       -<<<<<<<<<<<<<<<<<<=       ",
"      %<<<<<<<<<<<<<<<<<<<<%      ",
"     +<<<<<<<<<<<<<<<<<<<<<<+     ",
"     -<<<<<<<<<<<<<<<<<<<<<<=     ",
"    X<<<<<<<<<<<<<<<<<<<<<<<<o    ",
"    #<<<<<<<<<<<<<<<<<<<<<<<<@    ",
"    =<<<<<<<<<<<<<<<<<<<<<<<<=    ",
"    ><<<<<<<<<<<<<<<<<<<<<<<<:    ",
"    ,<<<<<<<<<<<<<<<<<<<<<<<<,    ",
"    ,<<<<<<<<<<<<<<<<<<<<<<<<,    ",
"    :<<<<<<<<<<<<<<<<<<<<<<<<;    ",
"    =<<<<<<<<11111111<<<<<<<<=    ",
"    @<<<<<<<<<<<<<<<<<<<<<<<<@    ",
"    X<<<<<<<<<<<<<<<<<<<<<<<<X    ",
"     =<<<<<<<<<<<<<<<<<<<<<<=     ",
"     +<<<<<<<<<<<<<<<<<<<<<<+     ",
"      %<<<<<<<<<<<<<<<<<<<<$      ",
"       *<<<<<<<<<<<<<<<<<<=       ",
"       .=<<<<<<<<<<<<<<<<=.       ",
"         %<<<<<<<<<<<<<<$         ",
"          O&<<<<<<<<<<=+          ",
"            X@=;,,;=@X            "
};
