/* XPM */
static char *close_inactive[] = {
/* columns rows colors chars-per-pixel */
"34 26 23 1 ",
"  c #716590",
". c #8F85A8",
"X c #8F86A9",
"o c #B6AFC8",
"O c #B9B1CA",
"+ c #BAB2CA",
"@ c #E7E3EE",
"# c #E8E4EF",
"$ c #E8E5EF",
"% c #E9E5EF",
"& c #EAE7F1",
"* c #EBE8F1",
"= c #ECE8F2",
"- c #ECE9F2",
"; c #EEEBF4",
": c #EEECF4",
"> c #EEECF5",
", c #EFEDF5",
"< c #F2F0F8",
"1 c #F3F0F8",
"2 c #F3F1F8",
"3 c #F4F2F9",
"4 c #F5F3FA",
/* pixels */
"4444444444441>-&%%&-:1444444444444",
"4444444444<*##########-<4444444444",
"444444444;##############;444444444",
"44444443*################-34444444",
"4444444-##################-4444444",
"444444;####################;444444",
"44444<######################<44444",
"44444-######################-44444",
"44441########@######@########14444",
"4444>#######@.O####O.@#######,4444",
"4444-########+ o##+ o########-4444",
"4444&#########+ o+ o#########&4444",
"4444$##########O  O##########$4444",
"4444$##########O  O##########$4444",
"4444&#########+ o+ o#########&4444",
"4444-########+ o##+ o########-4444",
"4444:#######@XO####O.@#######,4444",
"44441########@######@########14444",
"44444-######################-44444",
"44444<######################<44444",
"444444;####################;444444",
"4444444=##################-4444444",
"44444443-################-34444444",
"444444444;##############;444444444",
"44444444442=##########-<4444444444",
"4444444444441,-&$$&-,1444444444444"
};
