/* XPM */
static char *maximize_pressed[] = {
/* columns rows colors chars-per-pixel */
"34 26 20 1 ",
"  c #362562",
". c #CCC8D9",
"X c #CECBDA",
"o c #D3CFDF",
"O c #D7D3E2",
"+ c #D8D3E2",
"@ c #D9D4E2",
"# c #DFDCE8",
"$ c #E0DCE8",
"% c #E3E0EB",
"& c #E5E2ED",
"* c #F0EEF5",
"= c #F0EFF6",
"- c #F1EFF6",
"; c #F2F0F6",
": c #F3F1F7",
"> c #F2F1F8",
", c #F7F5FB",
"< c #F9F8FC",
"1 c #FAF9FD",
/* pixels */
"111111111111;%+oXXo+%;111111111111",
"1111111111*O..........+*1111111111",
"11111111<#..............#<11111111",
"1111111,O................+,1111111",
"111111<+..................+<111111",
"111111#....................$111111",
"11111-......................*11111",
"11111+......................+11111",
"1111;........................;1111",
"1111%........        ........&1111",
"1111+........ ...... ........+1111",
"1111o........ ...... ........o1111",
"1111X........ ...... ........X1111",
"1111X........ ...... ........X1111",
"1111o........ ...... ........o1111",
"1111+........ ...... ........+1111",
"1111%........        ........&1111",
"1111:........................;1111",
"11111+......................+11111",
"11111=......................-11111",
"111111#....................#111111",
"1111111@..................+<111111",
"1111111,+................+,1111111",
"11111111<#..............#<11111111",
"1111111111>@..........+-1111111111",
"111111111111;&+oXXo+&:111111111111"
};
