/* XPM */
static char *maximize_inactive[] = {
/* columns rows colors chars-per-pixel */
"34 26 17 1 ",
"  c #6F638F",
". c #E8E4EF",
"X c #E8E5EF",
"o c #E9E5EF",
"O c #EAE7F1",
"+ c #EBE8F1",
"@ c #ECE8F2",
"# c #ECE9F2",
"$ c #EEEBF4",
"% c #EEECF4",
"& c #EEECF5",
"* c #EFEDF5",
"= c #F2F0F8",
"- c #F3F0F8",
"; c #F3F1F8",
": c #F4F2F9",
"> c #F5F3FA",
/* pixels */
">>>>>>>>>>>>-&#OooO#%->>>>>>>>>>>>",
">>>>>>>>>>=+..........#=>>>>>>>>>>",
">>>>>>>>>$..............$>>>>>>>>>",
">>>>>>>:+................#:>>>>>>>",
">>>>>>>#..................#>>>>>>>",
">>>>>>$....................$>>>>>>",
">>>>>=......................=>>>>>",
">>>>>#......................#>>>>>",
">>>>-........................->>>>",
">>>>&........        ........*>>>>",
">>>>#........ ...... ........#>>>>",
">>>>O........ ...... ........O>>>>",
">>>>X........ ...... ........X>>>>",
">>>>X........ ...... ........X>>>>",
">>>>O........ ...... ........O>>>>",
">>>>#........ ...... ........#>>>>",
">>>>%........        ........*>>>>",
">>>>-........................->>>>",
">>>>>#......................#>>>>>",
">>>>>=......................=>>>>>",
">>>>>>$....................$>>>>>>",
">>>>>>>@..................#>>>>>>>",
">>>>>>>:#................#:>>>>>>>",
">>>>>>>>>$..............$>>>>>>>>>",
">>>>>>>>>>;@..........#=>>>>>>>>>>",
">>>>>>>>>>>>-*#OXXO#*->>>>>>>>>>>>"
};
