/* XPM */
static char *top_left_active[] = {
/* columns rows colors chars-per-pixel */
"8 38 4 1 ",
"  c None",
". c #FAF9FD",
"X c #FAFAFD",
"o c #FAFAFE",
/* pixels */
"     X..",
"   X....",
"  o.....",
" X......",
" .......",
"X.......",
"........",
"........",
"........",
"........",
"........",
"........",
"........",
"........",
"........",
"........",
"........",
"........",
"........",
"........",
"........",
"........",
"........",
"........",
"........",
"........",
"........",
"........",
"........",
"........",
"........",
"........",
"........",
"........",
"........",
"........",
"........",
"........"
};
