/* XPM */
static char *close_prelight[] = {
/* columns rows colors chars-per-pixel */
"34 26 64 1 ",
"  c #643CC8",
". c #653DCC",
"X c #673ECF",
"o c #6A44CB",
"O c #6B44CB",
"+ c #6B45CB",
"@ c #6B45CC",
"# c #6A40D5",
"$ c #6A40D6",
"% c #6C41D9",
"& c #7955D3",
"* c #7956D3",
"= c #7A56D3",
"- c #7A57D3",
"; c #7044E2",
": c #7144E3",
"> c #7144E4",
", c #7245E4",
"< c #7345E7",
"1 c #7446E8",
"2 c #7446E9",
"3 c #8260D8",
"4 c #8361D9",
"5 c #8462D9",
"6 c #906BED",
"7 c #916CED",
"8 c #916DED",
"9 c #926DED",
"0 c #926EED",
"q c #9071E1",
"w c #9171E1",
"e c #9172E1",
"r c #9272E1",
"t c #9273E1",
"y c #9A7BE6",
"u c #9A7CE6",
"i c #9B7DE6",
"p c #9470EE",
"a c #9571EE",
"s c #9572EE",
"d c #9774EE",
"f c #9775EE",
"g c #9A79EF",
"h c #A489EC",
"j c #A58AEC",
"k c #A182F0",
"l c #A283F0",
"z c #A486F0",
"x c #A587F0",
"c c #AC91F0",
"v c #AD92F0",
"b c #AD92F1",
"n c #AD93F1",
"m c #AE93F0",
"M c #AC91F2",
"N c #AD92F2",
"B c #AE92F2",
"V c #AE93F2",
"C c #AE94F0",
"Z c #BBA4F4",
"A c #BEA8F4",
"S c #E1D8FA",
"D c #E2D8FA",
"F c #FEFDFF",
/* pixels */
"222222222222>%X.  .X%>222222222222",
"2222222222;X@4ihCChu4@X:2222222222",
"222222221#+rVzgs88sgzntO#122222222",
"2222222<X-ck9666666660kc*X<2222222",
"2222221X5Nd666666666666dB4X1222222",
"222222#=Mp66666666666666pB*$222222",
"22222;+cd6666666666666666dcO:22222",
"22222Xrk666666666666666666leX22222",
"2222>@V96666676666667666660b+>2222",
"2222%5z666667DZ6666ZD766666x4%2222",
"2222Xug666666ZFA66ZFA666666guX2222",
"2222.ja6666666ZFAZFA6666666sh.2222",
"2222 m966666666ZFFZ666666669m 2222",
"2222 v966666666ZFFZ666666669v 2222",
"2222.ha6666666ZFAZFA6666666sh.2222",
"2222Xug666666ZFA66ZFA666666gyX2222",
"2222%4z666667SZ6666ZD766666x3%2222",
"2222>@b06666676666667666660b+,2222",
"22222Xrk666666666666666666lqX22222",
"22222:Ocd6666666666666666fcO:22222",
"222222#&Np66666666666666pB*$222222",
"2222221X4Nd666666666666fN4X1222222",
"2222222<X*cl0666666660lc*X<2222222",
"222222221#owbxgs99sgxbrO$122222222",
"2222222222:X+4uhmmhu3+X:2222222222",
"222222222222>%X.  .X%,222222222222"
};
