/* XPM */
static char *close_pressed[] = {
/* columns rows colors chars-per-pixel */
"34 26 44 1 ",
"  c #643CC8",
". c #653DCC",
"X c #673ECF",
"o c #6841CA",
"O c #6943CA",
"+ c #6943CB",
"@ c #6A40D5",
"# c #6A40D6",
"$ c #6C41D9",
"% c #744FD2",
"& c #7450D2",
"* c #7B56D7",
"= c #7B58D8",
"- c #7C59D8",
"; c #7044E2",
": c #7144E3",
"> c #7144E4",
", c #7245E4",
"< c #7345E7",
"1 c #7446E8",
"2 c #7446E9",
"3 c #8763E0",
"4 c #8764E0",
"5 c #8765E0",
"6 c #8865E0",
"7 c #8866E0",
"8 c #8F6CE4",
"9 c #8F6DE4",
"0 c #9675E9",
"q c #9676E9",
"w c #9D7DEE",
"e c #9E7EEE",
"r c #9E7FEF",
"t c #9F80F0",
"y c #A080EF",
"u c #A080F0",
"i c #A181F0",
"p c #A282F0",
"a c #C5B1F6",
"s c #C5B2F6",
"d c #C8B5F6",
"f c #E6DDFB",
"g c #E6DEFB",
"h c #FEFEFF",
/* pixels */
"222222222222>$X.  .X$>222222222222",
"2222222222;X+=90ee08=+X:2222222222",
"222222221@O6tiiiiiiiiy7O@122222222",
"2222222<X&wiiiiiiiiiiiiw&X<2222222",
"2222221X-iiiiiiiiiiiiiiii=X1222222",
"222222@%uiiiiiiiiiiiiiiiii&#222222",
"22222;OwiiiiiiiiiiiiiiiiiiwO:22222",
"22222X6iiiiiiiiiiiiiiiiiiii5X22222",
"2222>+uiiiiiipiiiiiipiiiiiirO>2222",
"2222$-iiiiiipgsiiiisgpiiiiii=$2222",
"2222X8iiiiiiiahdiiahdiiiiiii8X2222",
"2222.qiiiiiiiiahdahdiiiiiiii0.2222",
"2222 eiiiiiiiiishhsiiiiiiiiie 2222",
"2222 wiiiiiiiiishhsiiiiiiiiiw 2222",
"2222.0iiiiiiiiahdahdiiiiiiii0.2222",
"2222X8iiiiiiiahdiiahdiiiiiii8X2222",
"2222$=iiiiiipfsiiiisgpiiiiii*$2222",
"2222>+riiiiiipiiiiiipiiiiiirO,2222",
"22222X6iiiiiiiiiiiiiiiiiiii4X22222",
"22222:OwiiiiiiiiiiiiiiiiiiwO:22222",
"222222@%uiiiiiiiiiiiiiiiii&#222222",
"2222221X=uiiiiiiiiiiiiiiu=X1222222",
"2222222<X&wiiiiiiiiiiiiw&X<2222222",
"222222221@o3riiiiiiiir6O#122222222",
"2222222222:XO=80ee08*OX:2222222222",
"222222222222>$X.  .X$,222222222222"
};
