/* XPM */
static char *close_inactive[] = {
/* columns rows colors chars-per-pixel */
"34 26 20 1 ",
"  c #B49CF2",
". c #B49DF2",
"X c #B59DF2",
"o c #B59EF2",
"O c #B69FF3",
"+ c #B79FF3",
"@ c #B7A0F3",
"# c #B7A1F3",
"$ c #B8A0F3",
"% c #B8A1F3",
"& c #B8A2F3",
"* c #B9A2F3",
"= c #B9A3F3",
"- c #BAA4F3",
"; c #CBBAF6",
": c #CBBBF6",
"> c #CDBDF6",
", c #DBD0F9",
"< c #DCD1F9",
"1 c #E7E0FB",
/* pixels */
"            X+%&**&%+.            ",
"          X$==========%X          ",
"         @==============@         ",
"        $================%        ",
"       %==================%       ",
"      @====================+      ",
"     .======================X     ",
"     %======================%     ",
"    .========-======-========.    ",
"    +=======-<:====:<-=======+    ",
"    %========;1>==;1>========%    ",
"    *=========;1>;1>=========&    ",
"    *==========:11:==========*    ",
"    *==========:11:==========*    ",
"    *=========;1>;1>=========&    ",
"    %========;1>==;1>========%    ",
"    +=======-,:====:<-=======O    ",
"    .========-======-========.    ",
"     %======================%     ",
"     .======================X     ",
"      @====================+      ",
"       #==================%       ",
"        %================%        ",
"         @==============+         ",
"          o@==========%.          ",
"            .+%&**%%O.            "
};
