/* XPM */
static char *close_active[] = {
/* columns rows colors chars-per-pixel */
"34 26 40 1 ",
"  c #643CC8",
". c #663FCA",
"X c #653DCC",
"o c #673ECF",
"O c #6740CA",
"+ c #6740CB",
"@ c #6A40D5",
"# c #6A40D6",
"$ c #6F48D1",
"% c #6C41D9",
"& c #744DD6",
"* c #744ED7",
"= c #754FD7",
"- c #7C56DE",
"; c #7C57DE",
": c #7D57DE",
"> c #7D58DE",
", c #7044E2",
"< c #7144E3",
"1 c #7144E4",
"2 c #7245E4",
"3 c #7345E7",
"4 c #7446E8",
"5 c #7446E9",
"6 c #825CE2",
"7 c #825DE2",
"8 c #8863E7",
"9 c #8964E7",
"0 c #8D68EB",
"q c #8E69EB",
"w c #8E6AEC",
"e c #8F6BEC",
"r c #8F6AED",
"t c #906BED",
"y c #916CED",
"u c #BBA4F4",
"i c #BEA8F4",
"p c #E1D8FA",
"a c #E2D8FA",
"s c #FEFDFF",
/* pixels */
"5555555555551%oX  Xo%1555555555555",
"5555555555,o+*78qq86*+o<5555555555",
"555555554@O:rtttttttte>O@455555555",
"55555553o$0tttttttttttt0$o35555555",
"5555554o=tttttttttttttttt*o4555555",
"555555@$rttttttttttttttttt$#555555",
"55555,O0tttttttttttttttttt0O<55555",
"55555o:tttttttttttttttttttt;o55555",
"55551+rttttttyttttttyttttttwO15555",
"5555%=ttttttyauttttuaytttttt*%5555",
"5555o6tttttttusittusittttttt6o5555",
"5555X9ttttttttusiusitttttttt8X5555",
"5555 qtttttttttussutttttttttq 5555",
"5555 0tttttttttussuttttttttt0 5555",
"5555X8ttttttttusiusitttttttt8X5555",
"5555o6tttttttusittusittttttt6o5555",
"5555%*ttttttyputtttuaytttttt&%5555",
"55551+wttttttyttttttyttttttwO25555",
"55555o:tttttttttttttttttttt;o55555",
"55555<O0tttttttttttttttttt0O<55555",
"555555@$rttttttttttttttttt$#555555",
"5555554o*rttttttttttttttr*o4555555",
"55555553o$0tttttttttttt0$o35555555",
"555555554@.-wttttttttw:O#455555555",
"5555555555<oO*68qq86&Oo<5555555555",
"5555555555551%oX  Xo%2555555555555"
};
