/* XPM */
static char *hide_inactive[] = {
/* columns rows colors chars-per-pixel */
"34 26 39 1 ",
"  c #9985CC",
". c #9B87CD",
"X c #9C87CD",
"o c #9B88CD",
"O c #9C88CD",
"+ c #9C88CF",
"@ c #9E8AD3",
"# c #A28ED4",
"$ c #A28ED5",
"% c #A38ED5",
"& c #A38FD5",
"* c #A38ED9",
"= c #A692D8",
"- c #A693D9",
"; c #A793D9",
": c #A590DC",
"> c #A691DD",
", c #AC96E6",
"< c #AD97E6",
"1 c #AE97E7",
"2 c #AD99E0",
"3 c #AD9AE1",
"4 c #AE9BE1",
"5 c #AF98E8",
"6 c #B19EE5",
"7 c #B29EE5",
"8 c #B29EE6",
"9 c #B19AEB",
"0 c #B19AEC",
"q c #B29BED",
"w c #B6A2E9",
"e c #B7A3E9",
"r c #BAA7ED",
"t c #BBA7ED",
"y c #BAA8ED",
"u c #BBA8ED",
"i c #BBA8EF",
"p c #BCA9F0",
"a c #E8E1F9",
/* pixels */
"qqqqqqqqqqqq1:@+  +@:1qqqqqqqqqqqq",
"qqqqqqqqqq,@.-6ette8-.@<qqqqqqqqqq",
"qqqqqqqq0*O2pppppppppi4O*0qqqqqqqq",
"qqqqqqq9@&uppppppppppppy%@9qqqqqqq",
"qqqqqq0@-pppppppppppppppp-@0qqqqqq",
"qqqqqq*$pppppppppppppppppp&*qqqqqq",
"qqqqq,OupppppppppppppppppprX<qqqqq",
"qqqqq@2pppppppppppppppppppp3@qqqqq",
"qqqq1.pppppppppppppppppppppiO1qqqq",
"qqqq:;pppppppppppppppppppppp->qqqq",
"qqqq@8pppppppppppppppppppppp6@qqqq",
"qqqq+wppppppppppppppppppppppe+qqqq",
"qqqq tppppppppppppppppppppppt qqqq",
"qqqq uppppppppppppppppppppppy qqqq",
"qqqq+eppppppppppppppppppppppe+qqqq",
"qqqq@7pppppppaaaaaaaappppppp6@qqqq",
"qqqq:-pppppppppppppppppppppp=>qqqq",
"qqqq1.ippppppppppppppppppppiO5qqqq",
"qqqqq@2pppppppppppppppppppp2@qqqqq",
"qqqqq<Xyppppppppppppppppppr.<qqqqq",
"qqqqqq*$pppppppppppppppppp%*qqqqqq",
"qqqqqq0@-pppppppppppppppp-@0qqqqqq",
"qqqqqqq9@%yppppppppppppr#@9qqqqqqq",
"qqqqqqqq0*o2ippppppppi2X*0qqqqqqqq",
"qqqqqqqqqq<@O-7ette6=O@<qqqqqqqqqq",
"qqqqqqqqqqqq1>@+  +@>5qqqqqqqqqqqq"
};
