/* XPM */
static char *maximize_prelight[] = {
/* columns rows colors chars-per-pixel */
"34 26 59 1 ",
"  c #643CC8",
". c #653DCC",
"X c #673ECF",
"o c #6A44CB",
"O c #6B44CB",
"+ c #6B45CB",
"@ c #6B45CC",
"# c #6A40D5",
"$ c #6A40D6",
"% c #6C41D9",
"& c #7955D3",
"* c #7956D3",
"= c #7A56D3",
"- c #7A57D3",
"; c #7044E2",
": c #7144E3",
"> c #7144E4",
", c #7245E4",
"< c #7345E7",
"1 c #7446E8",
"2 c #7446E9",
"3 c #8260D8",
"4 c #8361D9",
"5 c #8462D9",
"6 c #906BED",
"7 c #916DED",
"8 c #926DED",
"9 c #926EED",
"0 c #9071E1",
"q c #9171E1",
"w c #9172E1",
"e c #9272E1",
"r c #9273E1",
"t c #9A7BE6",
"y c #9A7CE6",
"u c #9B7DE6",
"i c #9470EE",
"p c #9571EE",
"a c #9572EE",
"s c #9774EE",
"d c #9775EE",
"f c #9A79EF",
"g c #A489EC",
"h c #A58AEC",
"j c #A182F0",
"k c #A283F0",
"l c #A486F0",
"z c #A587F0",
"x c #AC91F0",
"c c #AD92F0",
"v c #AD92F1",
"b c #AD93F1",
"n c #AE93F0",
"m c #AC91F2",
"M c #AD92F2",
"N c #AE92F2",
"B c #AE93F2",
"V c #AE94F0",
"C c white",
/* pixels */
"222222222222>%X.  .X%>222222222222",
"2222222222;X@4ugVVgy4@X:2222222222",
"222222221#+eBlfa77aflbrO#122222222",
"2222222<X-xj8666666669jx*X<2222222",
"2222221X5Ms666666666666sN4X1222222",
"222222#=mi66666666666666iN*$222222",
"22222;+xs6666666666666666sxO:22222",
"22222Xej666666666666666666kwX22222",
"2222>@B86666666666666666669v+>2222",
"2222%5l666666CCCCCCCC666666z4%2222",
"2222Xyf666666C666666C666666fyX2222",
"2222.hp666666C666666C666666ag.2222",
"2222 n8666666C666666C6666668n 2222",
"2222 c8666666C666666C6666668c 2222",
"2222.gp666666C666666C666666ag.2222",
"2222Xyf666666C666666C666666ftX2222",
"2222%4l666666CCCCCCCC666666z3%2222",
"2222>@v96666666666666666669v+,2222",
"22222Xej666666666666666666k0X22222",
"22222:Oxs6666666666666666dxO:22222",
"222222#&Mi66666666666666iN*$222222",
"2222221X4Ms666666666666dM4X1222222",
"2222222<X*xk9666666669kx*X<2222222",
"222222221#oqvzfa88afzveO$122222222",
"2222222222:X+4ygnngy3+X:2222222222",
"222222222222>%X.  .X%,222222222222"
};
