/* XPM */
static char *maximize_inactive[] = {
/* columns rows colors chars-per-pixel */
"34 26 14 1 ",
"  c #B49CF2",
". c #B49DF2",
"X c #B59DF2",
"o c #B59EF2",
"O c #B69FF3",
"+ c #B79FF3",
"@ c #B7A0F3",
"# c #B7A1F3",
"$ c #B8A0F3",
"% c #B8A1F3",
"& c #B8A2F3",
"* c #B9A2F3",
"= c #B9A3F3",
"- c #E8E1FB",
/* pixels */
"            X+%&**&%+.            ",
"          X$==========%X          ",
"         @==============@         ",
"        $================%        ",
"       %==================%       ",
"      @====================+      ",
"     .======================X     ",
"     %======================%     ",
"    .========================.    ",
"    +========--------========+    ",
"    %========-======-========%    ",
"    *========-======-========&    ",
"    *========-======-========*    ",
"    *========-======-========*    ",
"    *========-======-========&    ",
"    %========-======-========%    ",
"    +========--------========O    ",
"    .========================.    ",
"     %======================%     ",
"     .======================X     ",
"      @====================+      ",
"       #==================%       ",
"        %================%        ",
"         @==============+         ",
"          o@==========%.          ",
"            .+%&**%%O.            "
};
