/* XPM */
static char *top_left_active[] = {
/* columns rows colors chars-per-pixel */
"8 38 7 1 ",
"  c None",
". c #7346E9",
"X c #7445E8",
"o c #7445E9",
"O c #7446E9",
"+ c #7446EA",
"@ c #7547EA",
/* pixels */
"     +.O",
"   XOOOO",
"  OOOOOO",
" XOOOOOO",
" OOOOOOO",
"@OOOOOOO",
"oOOOOOOO",
"OOOOOOOO",
"OOOOOOOO",
"OOOOOOOO",
"OOOOOOOO",
"OOOOOOOO",
"OOOOOOOO",
"OOOOOOOO",
"OOOOOOOO",
"OOOOOOOO",
"OOOOOOOO",
"OOOOOOOO",
"OOOOOOOO",
"OOOOOOOO",
"OOOOOOOO",
"OOOOOOOO",
"OOOOOOOO",
"OOOOOOOO",
"OOOOOOOO",
"OOOOOOOO",
"OOOOOOOO",
"OOOOOOOO",
"OOOOOOOO",
"OOOOOOOO",
"OOOOOOOO",
"OOOOOOOO",
"OOOOOOOO",
"OOOOOOOO",
"OOOOOOOO",
"OOOOOOOO",
"OOOOOOOO",
"OOOOOOOO"
};
